<?xml version="1.0" standalone="no"?>
<!DOCTYPE svg PUBLIC "-//W3C//DTD SVG 20010904//EN"
 "http://www.w3.org/TR/2001/REC-SVG-20010904/DTD/svg10.dtd">
<svg version="1.0" xmlns="http://www.w3.org/2000/svg"
 width="1502.000000pt" height="1502.000000pt" viewBox="0 0 1502.000000 1502.000000"
 preserveAspectRatio="xMidYMid meet">
<metadata>
Created by potrace 1.11, written by Peter Selinger 2001-2013
</metadata>
<g transform="translate(0.000000,1502.000000) scale(0.100000,-0.100000)"
fill="#000000" stroke="none">
<path d="M11356 11746 c-3 -53 -3 -252 0 -443 l7 -348 -29 -29 c-52 -51 -173
-139 -479 -346 -335 -226 -480 -332 -489 -356 -3 -8 -6 -481 -6 -1050 l0
-1034 -1341 0 -1341 0 -1761 1152 c-969 633 -1767 1155 -1772 1159 -6 5 -626
-477 -1483 -1153 l-1472 -1160 0 -554 0 -554 -384 0 c-356 0 -389 -1 -449 -20
-120 -37 -224 -133 -287 -266 -64 -132 -61 -47 -58 -1671 l3 -1478 27 -75 c64
-174 185 -295 339 -337 61 -17 397 -18 7129 -18 6869 0 7067 1 7133 19 83 23
169 77 225 142 51 58 116 188 131 262 8 37 11 498 11 1515 0 1268 -2 1471 -15
1526 -36 153 -152 302 -282 364 l-68 32 -301 3 -301 3 -5 699 c-5 669 -6 699
-24 732 -15 25 -90 78 -304 216 -157 100 -316 201 -353 224 -107 64 -119 63
-503 -65 -177 -59 -329 -107 -339 -107 -17 0 -17 61 -14 1158 5 1323 14 1188
-94 1268 -150 110 -990 664 -1031 680 -10 4 -14 -16 -20 -90z m352 -351 l102
-60 0 -103 0 -104 -47 28 c-27 15 -75 44 -108 64 l-60 37 -3 102 c-1 57 1 101
6 99 5 -1 54 -30 110 -63z m632 -466 c0 -55 -3 -99 -7 -99 -4 0 -53 27 -110
61 l-103 61 0 104 0 103 110 -66 110 -66 0 -98z m-632 -84 l102 -60 0 -103 0
-104 -47 28 c-27 15 -75 44 -108 64 l-60 37 -3 102 c-1 57 1 101 6 99 5 -1 54
-30 110 -63z m632 -466 c0 -55 -3 -99 -7 -99 -4 0 -53 27 -110 61 l-103 61 0
104 0 103 110 -66 110 -66 0 -98z m-595 -249 l60 -37 3 -102 c1 -57 -1 -101
-6 -99 -5 1 -54 30 -110 63 l-102 60 0 103 0 104 48 -28 c26 -15 74 -44 107
-64z m491 -282 l104 -63 0 -104 0 -103 -22 14 c-13 8 -62 38 -110 67 l-88 52
0 100 c0 54 3 99 6 99 3 0 53 -28 110 -62z m-528 -442 l102 -60 0 -104 0 -104
-22 14 c-13 8 -62 38 -110 67 l-88 52 0 101 c0 55 4 98 8 96 4 -1 54 -30 110
-62z m545 -315 l87 -52 0 -100 c0 -54 -3 -99 -6 -99 -3 0 -53 28 -110 62
l-104 63 0 103 0 102 23 -13 c12 -8 61 -38 110 -66z m-508 -351 l60 -37 3
-102 c1 -57 -1 -101 -6 -99 -5 1 -54 30 -110 63 l-102 60 0 103 0 104 48 -28
c26 -15 74 -44 107 -64z m1685 -321 c0 -55 -2 -99 -5 -99 -3 0 -53 28 -110 62
l-105 61 0 103 0 103 110 -66 110 -66 0 -98z m-1194 39 l104 -63 0 -97 c0 -56
-4 -98 -10 -98 -5 0 -54 27 -110 61 l-100 60 0 100 c0 54 3 99 6 99 3 0 53
-28 110 -62z m1632 -190 c81 -48 82 -49 82 -88 l0 -40 -111 0 -112 0 7 38 c3
20 6 65 6 100 0 72 -14 74 128 -10z m-10229 35 c141 -36 301 -162 368 -289 27
-50 1063 -3040 1063 -3066 0 -4 -159 -8 -354 -8 l-354 0 -59 173 c-33 94 -86
247 -118 340 l-58 167 -651 0 -652 0 -120 -340 -119 -340 -352 0 c-281 0 -353
3 -353 13 0 7 231 689 514 1515 347 1013 525 1521 547 1559 70 118 202 224
334 268 107 36 247 39 364 8z m2421 -1708 l0 -1655 -300 0 -300 0 0 1655 0
1655 300 0 300 0 0 -1655z m1665 735 c407 -58 762 -326 926 -700 67 -150 91
-261 96 -442 5 -141 -6 -287 -24 -334 -4 -12 -132 -14 -835 -14 l-829 0 18
-31 c32 -55 157 -165 224 -198 127 -61 122 -61 806 -61 l623 0 0 -306 0 -306
-657 5 c-628 4 -662 5 -754 25 -479 108 -832 471 -924 953 -20 107 -21 325 -1
439 87 490 489 889 974 964 105 17 262 19 357 6z m1887 -792 l3 -743 23 -58
c135 -334 579 -334 714 0 l23 58 3 743 3 742 294 0 295 0 0 -765 c0 -840 1
-829 -61 -1000 -59 -163 -200 -348 -345 -451 -87 -62 -234 -130 -340 -156
-126 -31 -332 -31 -458 0 -106 26 -253 94 -340 156 -145 103 -286 288 -345
451 -62 171 -61 160 -61 1000 l0 765 295 0 294 0 3 -742z m2268 2 c0 -729 0
-740 21 -797 15 -41 37 -73 73 -109 84 -82 95 -84 473 -84 l323 0 0 865 0 865
300 0 301 0 -4 -1267 c-3 -1395 1 -1299 -64 -1462 -100 -251 -316 -450 -576
-530 -111 -34 -253 -41 -844 -41 l-563 0 0 305 0 305 603 0 c693 0 665 -3 753
85 59 59 94 139 94 215 l0 50 -295 0 c-163 0 -339 5 -393 11 -373 41 -668 300
-775 678 -21 74 -21 95 -25 864 l-3 787 301 0 300 0 0 -740z m-7343 -2220 c72
-40 110 -151 84 -246 -25 -91 -89 -134 -202 -134 -94 0 -150 25 -183 83 -67
119 -24 271 89 313 57 21 161 13 212 -16z m6245 20 c40 -12 88 -61 88 -91 0
-14 -7 -19 -29 -19 -16 0 -41 -3 -57 -6 -24 -4 -31 -1 -39 18 -8 19 -18 23
-50 23 -33 0 -40 -3 -40 -20 0 -16 15 -23 79 -41 95 -27 127 -48 145 -101 13
-36 12 -43 -5 -78 -31 -63 -63 -79 -158 -83 -58 -3 -93 1 -119 11 -39 17 -77
68 -77 105 0 20 4 22 60 22 39 0 60 -4 60 -12 0 -40 83 -66 110 -33 23 28 7
49 -55 67 -130 39 -165 68 -165 137 0 38 42 88 83 100 44 13 125 13 169 1z
m-7898 -10 c60 -22 84 -116 46 -178 -26 -42 -73 -62 -145 -62 l-55 0 0 -75 0
-75 -65 0 -65 0 0 200 0 200 129 0 c71 0 141 -4 155 -10z m826 -3 c14 -7 33
-29 44 -51 26 -53 10 -109 -40 -138 l-34 -20 25 -20 c14 -11 41 -51 61 -89
l34 -69 -72 0 -73 0 -38 70 c-37 68 -72 105 -89 94 -4 -3 -8 -41 -8 -85 l0
-79 -60 0 -60 0 0 200 0 200 143 0 c93 0 151 -5 167 -13z m1653 2 c41 -21 57
-51 57 -107 0 -95 -47 -132 -167 -132 l-53 0 0 -75 0 -75 -60 0 -60 0 0 200 0
200 131 0 c76 0 139 -5 152 -11z m637 -189 l0 -200 -60 0 -60 0 0 200 0 200
60 0 60 0 0 -200z m810 160 l0 -39 -102 -3 -103 -3 0 -30 0 -30 98 -3 97 -3 0
-39 0 -40 -101 0 -100 0 3 -37 3 -38 108 -3 107 -3 0 -44 0 -45 -175 0 -175 0
0 200 0 200 170 0 170 0 0 -40z m750 20 c59 -30 83 -84 83 -182 0 -56 -5 -85
-19 -109 -41 -70 -94 -88 -251 -89 l-103 0 0 200 0 200 125 0 c106 0 132 -3
165 -20z m844 -132 c32 -84 67 -174 77 -200 l19 -48 -69 0 -68 0 -9 33 c-10
32 -10 32 -81 35 l-72 3 -9 -33 c-8 -33 -9 -33 -76 -36 -53 -2 -67 0 -63 10 3
7 38 97 77 201 l73 187 71 0 72 0 58 -152z m806 134 c56 -30 85 -92 84 -183 0
-56 -5 -85 -20 -109 -41 -71 -93 -89 -251 -90 l-103 0 0 200 0 200 128 0 c105
0 134 -3 162 -18z m870 -22 l0 -40 -105 0 -105 0 0 -35 0 -35 100 0 100 0 0
-40 0 -40 -100 0 -100 0 0 -40 0 -40 110 0 110 0 0 -45 0 -45 -175 0 -175 0 0
200 0 200 170 0 170 0 0 -40z m-1880 -700 c927 -17 2274 -54 3655 -101 1473
-49 1761 -46 -4600 -46 -3245 1 -5873 2 -5840 4 213 11 2540 84 3455 108 1605
41 2472 51 3330 35z"/>
<path d="M3259 6912 c-113 -334 -204 -610 -202 -614 2 -5 191 -8 419 -8 400 0
415 1 412 19 -5 31 -412 1211 -418 1211 -3 0 -98 -274 -211 -608z"/>
<path d="M7442 6725 c-84 -19 -195 -74 -260 -131 -52 -46 -122 -129 -122 -145
0 -5 225 -9 500 -9 275 0 500 3 500 8 0 20 -98 128 -153 169 -144 106 -302
143 -465 108z"/>
<path d="M4382 4244 c-37 -15 -57 -68 -49 -128 14 -101 139 -117 163 -21 10
39 -1 113 -20 134 -23 25 -58 31 -94 15z"/>
<path d="M2730 4215 c0 -38 3 -45 19 -45 40 0 71 19 71 43 0 32 -18 47 -57 47
-32 0 -33 -1 -33 -45z"/>
<path d="M3522 4223 c3 -36 5 -38 40 -41 48 -4 84 27 68 58 -9 16 -21 20 -61
20 l-50 0 3 -37z"/>
<path d="M5202 4218 c3 -36 7 -44 26 -46 30 -5 72 23 72 48 0 24 -28 40 -70
40 -30 0 -31 -1 -28 -42z"/>
<path d="M7400 4140 c0 -122 1 -123 68 -99 47 16 65 87 41 158 -13 36 -35 51
-78 51 l-31 0 0 -110z"/>
<path d="M8253 4170 l-19 -65 34 -3 c19 -2 36 -1 39 1 2 3 -4 34 -15 68 l-19
64 -20 -65z"/>
<path d="M9050 4140 c0 -119 -2 -116 60 -104 43 9 65 58 56 129 -7 59 -32 85
-82 85 l-34 0 0 -110z"/>
</g>
</svg>
